# xmcd CD database file generated by OrangeCD 5.2
#
# Track frame offsets:
#	150
#	61632
#	88460
#	97375
#	138897
#
# Disc length: 2226 seconds
#
# Revision: 0
# Processed by: cddbd v1.5.1PL0 Copyright (c) Steve Scherf et al.
# Submitted via: OrangeCD 5.2
#
DISCID=4208b005
DTITLE=Freddie King - Tulsa, Oklahoma [CDTwo)
DYEAR=1975
DGENRE=Blues
TTITLE0=Sweet Home Chicago > Hey Baby > Palace of the King
TTITLE1=Please Accept My Love
TTITLE2=Instrumental
TTITLE3=Shake Your Bootie
TTITLE4=Hideaway > Mojo Boogie
EXTD=
EXTT0=
EXTT1=
EXTT2=
EXTT3=
EXTT4=
PLAYORDER=
